<svg width="1117" height="254" viewBox="0 0 1117 254" fill="none" xmlns="http://www.w3.org/2000/svg">
<path d="M1016.83 38.5C1022.58 38.5 1027.22 42.9942 1027.22 48.5C1027.22 54.0058 1022.58 58.5 1016.83 58.5C1011.07 58.4999 1006.44 54.0057 1006.44 48.5C1006.44 42.9943 1011.07 38.5001 1016.83 38.5Z" fill="white" stroke="white"/>
<path d="M1016.97 64.8711C1017.13 64.5374 1017.56 64.5336 1017.72 64.8779C1019.51 68.6822 1023.59 78.4544 1023.59 88.5C1023.59 93.3189 1020.83 96.5 1017.35 96.5C1015.59 96.5 1014.16 95.7044 1013.1 94.3096C1012.03 92.9012 1011.33 90.8743 1011.1 88.4531C1010.7 84.1699 1011.66 79.3093 1012.99 74.9805C1014.31 70.6603 1015.99 66.9133 1016.97 64.8711Z" fill="white" stroke="white"/>
<path d="M1004.5 59.089C1004.86 58.9605 1005.17 59.2616 1005.04 59.6156C1003.5 63.5541 999.218 73.2054 991.872 80.2879C988.322 83.71 984.039 84.0624 981.591 81.7018C980.357 80.5126 979.929 78.9824 980.202 77.2696C980.478 75.5404 981.472 73.6271 983.089 71.7564C985.938 68.46 990.168 65.6855 994.269 63.5319C998.362 61.3824 1002.29 59.8715 1004.5 59.089Z" fill="white" stroke="white"/>
<path d="M1000.81 48.209C1001.17 48.3673 1001.17 48.8102 1000.81 48.9658C996.806 50.712 986.733 54.5918 976.376 54.5918C971.334 54.5918 968.06 51.9093 968.06 48.5918C968.06 46.9214 968.873 45.5513 970.325 44.5244C971.791 43.4879 973.901 42.8106 976.42 42.5898C980.841 42.2024 985.85 43.1167 990.318 44.3828C994.779 45.6468 998.661 47.2503 1000.81 48.209Z" fill="white" stroke="white"/>
<path d="M1033.88 48.8828C1033.52 48.7245 1033.52 48.2816 1033.88 48.126C1037.89 46.3798 1047.96 42.5 1058.32 42.5C1063.36 42.5 1066.63 45.1825 1066.63 48.5C1066.63 50.1704 1065.82 51.5405 1064.37 52.5674C1062.9 53.6039 1060.79 54.2812 1058.27 54.502C1053.85 54.8894 1048.84 53.9751 1044.37 52.709C1039.91 51.445 1036.03 49.8415 1033.88 48.8828Z" fill="white" stroke="white"/>
<path d="M1029.53 60.2065C1029.39 59.8569 1029.71 59.5536 1030.07 59.6867C1034.16 61.1691 1044.17 65.296 1051.51 72.3785C1055.06 75.8009 1055.43 79.9298 1052.98 82.2907C1051.75 83.4798 1050.16 83.8926 1048.38 83.6293C1046.59 83.3635 1044.61 82.4052 1042.67 80.8463C1039.25 78.0992 1036.37 74.0216 1034.13 70.0679C1031.91 66.1214 1030.34 62.3361 1029.53 60.2065Z" fill="white" stroke="white"/>
<path d="M963.41 151C927.107 149 895.471 99.5 855.02 109C814.568 118.5 819.236 182 866.948 153.5M963.41 151C999.713 153 1028.76 90.5 1068.17 108C1107.59 125.5 1082.17 164.5 1058.84 161M963.41 151C982.081 149 1023.05 118.5 969.634 93" stroke="white" stroke-width="10"/>
<path d="M1048.98 133.5C1056.46 133.5 1062.48 139.337 1062.48 146.5C1062.48 147.493 1062.69 148.636 1062.98 149.839C1063.28 151.044 1063.66 152.344 1064.04 153.645C1064.81 156.278 1065.53 158.903 1065.47 161.031C1065.44 162.085 1065.21 162.972 1064.75 163.665C1064.29 164.349 1063.56 164.892 1062.41 165.207C1060.09 165.848 1056.13 165.52 1049.68 163.53C1041.47 160.064 1035.48 153.658 1035.48 146.5C1035.48 139.337 1041.51 133.5 1048.98 133.5Z" fill="white" stroke="white"/>
<path d="M948.91 95.2385C952.745 91.2576 959.649 88.2666 971.96 88.9944C973.83 89.7002 974.663 90.7096 974.958 91.886C975.27 93.1298 975.01 94.66 974.461 96.4309C974.189 97.3077 973.854 98.2227 973.499 99.1692C973.146 100.112 972.773 101.087 972.435 102.067C971.762 104.022 971.208 106.05 971.208 108C971.208 115.163 965.18 121 957.706 121C950.231 121 944.203 115.163 944.203 108C944.203 104.337 945.057 99.238 948.91 95.2385Z" fill="white" stroke="white"/>
<path d="M860.206 128.5C863.373 128.5 866.5 129.74 868.833 131.747C871.164 133.754 872.672 136.499 872.672 139.5V139.513L872.672 139.524C872.93 144.745 872.41 150.796 871.144 154.396C870.829 155.293 870.476 156.011 870.096 156.521C869.715 157.033 869.34 157.29 868.988 157.361C868.649 157.43 868.224 157.349 867.684 156.947C867.138 156.541 866.511 155.832 865.814 154.732L865.668 154.5H865.392C863.852 154.5 862.038 153.962 860.163 153.024C858.294 152.09 856.397 150.774 854.698 149.259C852.999 147.743 851.51 146.04 850.45 144.337C849.386 142.627 848.778 140.958 848.778 139.5C848.778 133.442 853.877 128.5 860.206 128.5Z" fill="white" stroke="white"/>
<path d="M1005.48 37.0923C1005.61 37.4419 1005.3 37.7452 1004.93 37.6122C1000.84 36.1297 990.834 32.0028 983.488 24.9203C979.938 21.498 979.573 17.3691 982.021 15.0082C983.255 13.819 984.842 13.4063 986.619 13.6695C988.412 13.9353 990.397 14.8937 992.337 16.4526C995.756 19.1996 998.634 23.2772 1000.87 27.231C1003.1 31.1774 1004.66 34.9627 1005.48 37.0923Z" fill="#47B6AD" stroke="#47B6AD"/>
<path d="M1018.24 32.1289C1018.08 32.4626 1017.65 32.4664 1017.49 32.1221C1015.7 28.3178 1011.62 18.5456 1011.62 8.5C1011.62 3.68113 1014.38 0.499999 1017.87 0.499999C1019.62 0.500048 1021.05 1.29564 1022.11 2.69043C1023.18 4.09884 1023.88 6.12573 1024.11 8.54687C1024.51 12.8301 1023.55 17.6907 1022.22 22.0195C1020.9 26.3397 1019.22 30.0867 1018.24 32.1289Z" fill="#47B6AD" stroke="#47B6AD"/>
<path d="M1028.97 36.5558C1028.61 36.6843 1028.29 36.3831 1028.43 36.0292C1029.97 32.0907 1034.25 22.4393 1041.6 15.3569C1045.15 11.9348 1049.43 11.5824 1051.88 13.943C1053.11 15.1321 1053.54 16.6624 1053.26 18.3751C1052.99 20.1043 1052 22.0177 1050.38 23.8884C1047.53 27.1848 1043.3 29.9593 1039.2 32.1128C1035.11 34.2623 1031.18 35.7733 1028.97 36.5558Z" fill="#47B6AD" stroke="#47B6AD"/>
<path d="M1016.83 38.5C1022.58 38.5 1027.22 42.9942 1027.22 48.5C1027.22 54.0058 1022.58 58.5 1016.83 58.5C1011.07 58.4999 1006.44 54.0057 1006.44 48.5C1006.44 42.9943 1011.07 38.5001 1016.83 38.5Z" fill="#47B6AD" stroke="#47B6AD"/>
<path d="M1016.97 64.8711C1017.13 64.5374 1017.56 64.5336 1017.72 64.8779C1019.51 68.6822 1023.59 78.4544 1023.59 88.5C1023.59 93.3189 1020.83 96.5 1017.35 96.5C1015.59 96.5 1014.16 95.7044 1013.1 94.3096C1012.03 92.9012 1011.33 90.8743 1011.1 88.4531C1010.7 84.1699 1011.66 79.3093 1012.99 74.9805C1014.31 70.6603 1015.99 66.9133 1016.97 64.8711Z" fill="#47B6AD" stroke="#47B6AD"/>
<path d="M1004.5 59.089C1004.86 58.9605 1005.17 59.2616 1005.04 59.6156C1003.5 63.5541 999.218 73.2054 991.872 80.2879C988.322 83.71 984.039 84.0624 981.591 81.7018C980.357 80.5126 979.929 78.9824 980.202 77.2696C980.478 75.5404 981.472 73.6271 983.089 71.7564C985.938 68.46 990.167 65.6855 994.268 63.5319C998.362 61.3824 1002.29 59.8715 1004.5 59.089Z" fill="#47B6AD" stroke="#47B6AD"/>
<path d="M1000.81 48.209C1001.17 48.3673 1001.17 48.8102 1000.81 48.9658C996.806 50.712 986.733 54.5918 976.376 54.5918C971.334 54.5918 968.06 51.9093 968.06 48.5918C968.06 46.9214 968.873 45.5513 970.325 44.5244C971.791 43.4879 973.901 42.8106 976.42 42.5898C980.841 42.2024 985.85 43.1167 990.318 44.3828C994.779 45.6468 998.661 47.2503 1000.81 48.209Z" fill="#47B6AD" stroke="#47B6AD"/>
<path d="M1033.88 48.8828C1033.52 48.7245 1033.52 48.2816 1033.88 48.126C1037.89 46.3798 1047.96 42.5 1058.32 42.5C1063.36 42.5 1066.63 45.1825 1066.63 48.5C1066.63 50.1704 1065.82 51.5405 1064.37 52.5674C1062.9 53.6039 1060.79 54.2812 1058.27 54.502C1053.85 54.8894 1048.84 53.9751 1044.37 52.709C1039.91 51.445 1036.03 49.8415 1033.88 48.8828Z" fill="#47B6AD" stroke="#47B6AD"/>
<path d="M1029.53 60.2065C1029.39 59.8569 1029.71 59.5536 1030.07 59.6867C1034.16 61.1691 1044.17 65.296 1051.51 72.3785C1055.06 75.8009 1055.43 79.9298 1052.98 82.2907C1051.75 83.4798 1050.16 83.8926 1048.38 83.6293C1046.59 83.3635 1044.61 82.4052 1042.67 80.8463C1039.25 78.0992 1036.37 74.0216 1034.14 70.0679C1031.91 66.1214 1030.34 62.3361 1029.53 60.2065Z" fill="#47B6AD" stroke="#47B6AD"/>
<path d="M963.41 151C927.107 149 895.471 99.5 855.02 109C814.568 118.5 819.236 182 866.948 153.5M963.41 151C999.713 153 1028.76 90.5 1068.17 108C1107.59 125.5 1082.17 164.5 1058.84 161M963.41 151C982.081 149 1023.05 118.5 969.634 93" stroke="white" stroke-width="10"/>
<path d="M963.41 151C927.107 149 895.471 99.5 855.02 109C814.568 118.5 819.236 182 866.948 153.5M963.41 151C999.713 153 1028.76 90.5 1068.17 108C1107.59 125.5 1082.17 164.5 1058.84 161M963.41 151C982.081 149 1023.05 118.5 969.634 93" stroke="#FABE0E" stroke-width="10"/>
<path d="M1048.98 133.5C1056.46 133.5 1062.48 139.337 1062.48 146.5C1062.48 147.493 1062.69 148.636 1062.98 149.839C1063.28 151.044 1063.66 152.344 1064.04 153.645C1064.81 156.278 1065.53 158.903 1065.47 161.031C1065.44 162.085 1065.21 162.972 1064.75 163.665C1064.29 164.349 1063.56 164.892 1062.41 165.207C1060.09 165.848 1056.13 165.52 1049.68 163.53C1041.47 160.064 1035.48 153.658 1035.48 146.5C1035.48 139.337 1041.51 133.5 1048.98 133.5Z" fill="#FABE0E" stroke="#FABE0E"/>
<path d="M948.91 95.2385C952.745 91.2576 959.649 88.2666 971.96 88.9944C973.83 89.7002 974.663 90.7096 974.958 91.886C975.27 93.1298 975.01 94.66 974.461 96.4309C974.189 97.3077 973.854 98.2227 973.499 99.1692C973.146 100.112 972.773 101.087 972.435 102.067C971.762 104.022 971.208 106.05 971.208 108C971.208 115.163 965.18 121 957.706 121C950.231 121 944.203 115.163 944.203 108C944.203 104.337 945.057 99.238 948.91 95.2385Z" fill="#FABE0E" stroke="#FABE0E"/>
<path d="M860.206 128.5C863.373 128.5 866.5 129.74 868.833 131.747C871.164 133.754 872.672 136.499 872.672 139.5V139.513L872.672 139.524C872.93 144.745 872.41 150.796 871.144 154.396C870.829 155.293 870.476 156.011 870.096 156.521C869.715 157.033 869.34 157.29 868.988 157.361C868.649 157.43 868.224 157.349 867.684 156.947C867.138 156.541 866.511 155.832 865.814 154.732L865.668 154.5H865.392C863.852 154.5 862.038 153.962 860.163 153.024C858.294 152.09 856.397 150.774 854.698 149.259C852.999 147.743 851.51 146.04 850.45 144.337C849.386 142.627 848.778 140.958 848.778 139.5C848.778 133.442 853.877 128.5 860.206 128.5Z" fill="#FABE0E" stroke="#FABE0E"/>
<path d="M422.331 122.944C422.621 123.689 421.906 124.369 421.136 124.082C417.67 122.793 410.028 119.53 404.352 114.058C401.449 111.259 401.022 107.726 403.188 105.638C405.354 103.55 408.767 104.227 411.921 106.761C417.275 111.063 420.92 119.321 422.331 122.944Z" fill="#CF703E"/>
<path d="M432.75 119.33C432.41 120.05 431.444 120.046 431.111 119.322C429.612 116.072 426.575 108.522 426.575 100.747C426.575 96.7896 428.863 94.0001 431.927 94.0001C434.99 94.0001 436.907 96.8059 437.278 100.747C437.912 107.467 434.402 115.831 432.75 119.33Z" fill="#CF703E"/>
<path d="M441.26 123.249C440.488 123.528 439.783 122.839 440.08 122.097C441.418 118.755 444.802 111.388 450.478 105.915C453.381 103.117 457.045 102.705 459.211 104.793C461.377 106.881 460.675 110.172 458.047 113.212C453.585 118.375 445.019 121.889 441.26 123.249Z" fill="#CF703E"/>
<ellipse cx="431.103" cy="132.5" rx="8.64536" ry="8.33505" fill="#CF703E"/>
<path d="M430.692 145.67C431.032 144.95 431.997 144.954 432.331 145.678C433.829 148.928 436.867 156.478 436.867 164.253C436.867 168.21 434.578 171 431.515 171C428.451 171 426.535 168.194 426.163 164.253C425.529 157.533 429.039 149.169 430.692 145.67Z" fill="#CF703E"/>
<path d="M420.796 140.676C421.569 140.396 422.273 141.085 421.976 141.827C420.639 145.169 417.255 152.536 411.579 158.009C408.676 160.807 405.011 161.219 402.845 159.131C400.68 157.043 401.382 153.752 404.01 150.712C408.472 145.549 417.038 142.035 420.796 140.676Z" fill="#CF703E"/>
<path d="M418.177 131.74C418.932 132.07 418.926 133.075 418.168 133.398C414.749 134.855 406.985 137.733 398.992 137.733C394.887 137.733 391.993 135.526 391.993 132.573C391.993 129.619 394.903 127.771 398.992 127.413C405.904 126.807 414.496 130.132 418.177 131.74Z" fill="#CF703E"/>
<path d="M444.853 133.333C444.098 133.003 444.103 131.998 444.861 131.675C448.281 130.218 456.044 127.34 464.038 127.34C468.143 127.34 471.037 129.547 471.037 132.5C471.037 135.453 468.126 137.301 464.038 137.66C457.125 138.266 448.534 134.941 444.853 133.333Z" fill="#CF703E"/>
<path d="M440.945 142.293C440.655 141.548 441.37 140.869 442.14 141.155C445.606 142.444 453.247 145.707 458.923 151.179C461.826 153.978 462.254 157.511 460.088 159.599C457.922 161.687 454.508 161.01 451.355 158.477C446 154.175 442.356 145.916 440.945 142.293Z" fill="#CF703E"/>
<path d="M664.005 121.944C664.295 122.689 663.58 123.369 662.81 123.082C659.344 121.793 651.703 118.53 646.027 113.058C643.124 110.259 642.696 106.726 644.862 104.638C647.028 102.55 650.442 103.227 653.595 105.761C658.95 110.063 662.594 118.321 664.005 121.944Z" fill="#CF703E"/>
<path d="M674.424 118.33C674.084 119.05 673.119 119.046 672.785 118.322C671.287 115.072 668.249 107.522 668.249 99.7475C668.249 95.7896 670.538 93.0001 673.601 93.0001C676.664 93.0001 678.581 95.8059 678.953 99.7475C679.586 106.467 676.076 114.831 674.424 118.33Z" fill="#CF703E"/>
<path d="M682.935 122.249C682.162 122.528 681.458 121.839 681.755 121.097C683.092 117.755 686.476 110.388 692.152 104.915C695.055 102.117 698.72 101.705 700.886 103.793C703.051 105.881 702.349 109.172 699.721 112.212C695.259 117.375 686.693 120.889 682.935 122.249Z" fill="#CF703E"/>
<ellipse cx="672.778" cy="131.5" rx="8.64536" ry="8.33505" fill="#CF703E"/>
<path d="M672.366 144.67C672.706 143.95 673.672 143.954 674.005 144.678C675.503 147.928 678.541 155.478 678.541 163.253C678.541 167.21 676.252 170 673.189 170C670.126 170 668.209 167.194 667.837 163.253C667.204 156.533 670.714 148.169 672.366 144.67Z" fill="#CF703E"/>
<path d="M662.471 139.676C663.243 139.396 663.948 140.085 663.651 140.827C662.313 144.169 658.929 151.536 653.253 157.009C650.35 159.807 646.686 160.219 644.52 158.131C642.354 156.043 643.056 152.752 645.684 149.712C650.146 144.549 658.712 141.035 662.471 139.676Z" fill="#CF703E"/>
<path d="M659.851 130.74C660.606 131.07 660.601 132.075 659.843 132.398C656.424 133.855 648.66 136.733 640.666 136.733C636.561 136.733 633.668 134.526 633.668 131.573C633.668 128.619 636.578 126.771 640.666 126.413C647.579 125.807 656.17 129.132 659.851 130.74Z" fill="#CF703E"/>
<path d="M686.528 132.333C685.773 132.003 685.778 130.998 686.536 130.675C689.955 129.218 697.719 126.34 705.712 126.34C709.818 126.34 712.711 128.547 712.711 131.5C712.711 134.453 709.801 136.301 705.712 136.66C698.8 137.266 690.208 133.941 686.528 132.333Z" fill="#CF703E"/>
<path d="M682.62 141.293C682.33 140.548 683.044 139.869 683.814 140.155C687.28 141.444 694.922 144.707 700.598 150.179C703.501 152.978 703.928 156.511 701.762 158.599C699.596 160.687 696.183 160.01 693.029 157.477C687.675 153.175 684.03 144.916 682.62 141.293Z" fill="#CF703E"/>
<path d="M673.205 186.22C701.486 182.732 732.28 221.605 684.517 239.049C636.755 256.492 601.561 194.194 557.569 196.188C513.576 198.181 475.241 247.521 426.222 238.052C377.202 228.583 382.858 165.288 440.676 193.696" stroke="#62CEDC" stroke-width="10"/>
<path d="M662.192 213.503C669.666 213.503 675.694 207.666 675.694 200.503C675.694 199.511 675.9 198.367 676.193 197.165C676.486 195.959 676.874 194.66 677.253 193.359C678.02 190.726 678.738 188.1 678.676 185.972C678.646 184.919 678.424 184.032 677.958 183.338C677.497 182.655 676.767 182.111 675.624 181.796C673.296 181.155 669.342 181.484 662.885 183.473C654.681 186.94 648.689 193.345 648.689 200.503C648.689 207.666 654.717 213.503 662.192 213.503Z" fill="#62CEDC" stroke="#62CEDC"/>
<path d="M434 218.384C440.375 218.384 447.054 213.646 448.506 207.294C449.003 203.62 449.235 199.505 448.087 196.017C446.957 192.581 444.481 189.719 439.445 188.502C437.958 188.52 436.167 189.265 434.279 190.549C432.38 191.84 430.439 193.637 428.693 195.639C426.948 197.64 425.41 199.833 424.311 201.909C423.206 203.998 422.573 205.917 422.573 207.384C422.573 213.442 427.672 218.384 434 218.384Z" fill="#62CEDC" stroke="#62CEDC"/>
<path d="M101.865 42.5C96.1084 42.5 91.473 46.9942 91.473 52.5C91.473 58.0058 96.1084 62.5 101.865 62.5C107.621 62.4999 112.255 58.0057 112.255 52.5C112.255 46.9943 107.621 42.5001 101.865 42.5Z" fill="#B74022" stroke="#B83F21"/>
<path d="M101.724 68.8711C101.563 68.5374 101.135 68.5336 100.973 68.8779C99.1814 72.6822 95.1038 82.4544 95.1038 92.5C95.1038 97.3189 97.8611 100.5 101.346 100.5C103.101 100.5 104.529 99.7044 105.59 98.3096C106.662 96.9012 107.362 94.8743 107.59 92.4531C107.994 88.1699 107.031 83.3093 105.703 78.9805C104.379 74.6603 102.705 70.9133 101.724 68.8711Z" fill="#B74022" stroke="#B83F21"/>
<path d="M114.195 63.089C113.832 62.9605 113.518 63.2616 113.656 63.6156C115.193 67.5541 119.474 77.2054 126.82 84.2879C130.37 87.71 134.653 88.0624 137.101 85.7018C138.335 84.5126 138.763 82.9824 138.49 81.2696C138.214 79.5404 137.22 77.6271 135.603 75.7564C132.754 72.46 128.525 69.6855 124.424 67.5319C120.33 65.3824 116.404 63.8715 114.195 63.089Z" fill="#B74022" stroke="#B83F21"/>
<path d="M117.878 52.209C117.522 52.3673 117.523 52.8102 117.88 52.9658C121.886 54.712 131.959 58.5918 142.316 58.5918C147.358 58.5918 150.632 55.9093 150.633 52.5918C150.633 50.9214 149.819 49.5513 148.367 48.5244C146.901 47.4879 144.791 46.8106 142.272 46.5898C137.851 46.2024 132.842 47.1167 128.374 48.3828C123.913 49.6468 120.031 51.2503 117.878 52.209Z" fill="#B74022" stroke="#B83F21"/>
<path d="M84.8137 52.8828C85.1694 52.7245 85.1679 52.2816 84.8118 52.126C80.8056 50.3798 70.7323 46.5 60.3752 46.5C55.3335 46.5 52.0589 49.1825 52.0588 52.5C52.0588 54.1704 52.8725 55.5405 54.3245 56.5674C55.79 57.6039 57.9 58.2812 60.4192 58.502C64.8405 58.8894 69.8496 57.9751 74.3176 56.709C78.7781 55.445 82.6601 53.8415 84.8137 52.8828Z" fill="#B74022" stroke="#B83F21"/>
<path d="M89.1655 64.2065C89.2987 63.8569 88.9864 63.5536 88.6192 63.6867C84.5341 65.1691 74.5234 69.296 67.1773 76.3785C63.6278 79.8009 63.2623 83.9298 65.7108 86.2907C66.9442 87.4798 68.5314 87.8926 70.3079 87.6293C72.1015 87.3635 74.0861 86.4052 76.0264 84.8463C79.4456 82.0992 82.3234 78.0216 84.5571 74.0679C86.7866 70.1214 88.3538 66.3361 89.1655 64.2065Z" fill="#B74022" stroke="#B83F21"/>
<path d="M155.282 155C191.585 153 223.221 103.5 263.672 113C304.124 122.5 299.457 186 251.744 157.5M155.282 155C118.979 157 89.9361 94.5 50.5214 112C11.1067 129.5 36.5188 168.5 59.8569 165M155.282 155C136.612 153 95.6409 122.5 149.058 97" stroke="#B83F21" stroke-width="10"/>
<path d="M69.7098 137.5C62.2353 137.5 56.2079 143.337 56.2079 150.5C56.2079 151.493 56.0013 152.636 55.7089 153.839C55.4158 155.044 55.0272 156.344 54.6483 157.645C53.8814 160.278 53.1634 162.903 53.2255 165.031C53.2562 166.085 53.4778 166.972 53.9442 167.665C54.4043 168.349 55.135 168.892 56.2782 169.207C58.6053 169.848 62.5597 169.52 69.0165 167.53C77.2205 164.064 83.2128 157.658 83.2128 150.5C83.2128 143.337 77.1845 137.5 69.7098 137.5Z" fill="#B74022" stroke="#B83F21"/>
<path d="M169.782 99.2385C165.947 95.2576 159.043 92.2666 146.732 92.9944C144.862 93.7002 144.029 94.7096 143.734 95.886C143.422 97.1298 143.682 98.66 144.231 100.431C144.503 101.308 144.838 102.223 145.193 103.169C145.546 104.112 145.919 105.087 146.257 106.067C146.93 108.022 147.484 110.05 147.484 112C147.484 119.163 153.512 125 160.986 125C168.461 125 174.489 119.163 174.489 112C174.489 108.337 173.635 103.238 169.782 99.2385Z" fill="#B74022" stroke="#B83F21"/>
<path d="M258.486 132.5C255.319 132.5 252.192 133.74 249.859 135.747C247.528 137.754 246.021 140.499 246.021 143.5V143.513L246.02 143.524C245.762 148.745 246.282 154.796 247.548 158.396C247.863 159.293 248.216 160.011 248.596 160.521C248.977 161.033 249.352 161.29 249.704 161.361C250.043 161.43 250.468 161.349 251.008 160.947C251.554 160.541 252.181 159.832 252.878 158.732L253.024 158.5H253.3C254.84 158.5 256.654 157.962 258.529 157.024C260.398 156.09 262.295 154.774 263.994 153.259C265.693 151.743 267.182 150.04 268.242 148.337C269.306 146.627 269.914 144.958 269.914 143.5C269.914 137.442 264.815 132.5 258.486 132.5Z" fill="#B74022" stroke="#B83F21"/>
<path d="M113.216 41.0923C113.083 41.4419 113.395 41.7452 113.762 41.6122C117.847 40.1297 127.858 36.0028 135.204 28.9203C138.754 25.498 139.119 21.3691 136.671 19.0082C135.437 17.819 133.85 17.4063 132.073 17.6695C130.28 17.9353 128.295 18.8937 126.355 20.4526C122.936 23.1996 120.058 27.2772 117.824 31.231C115.595 35.1774 114.028 38.9627 113.216 41.0923Z" fill="#47B6AD" stroke="#47B6AD"/>
<path d="M100.449 36.1289C100.609 36.4626 101.037 36.4664 101.2 36.1221C102.991 32.3178 107.069 22.5456 107.069 12.5C107.069 7.68113 104.312 4.5 100.827 4.5C99.0716 4.50005 97.644 5.29564 96.5826 6.69043C95.511 8.09884 94.8109 10.1257 94.5826 12.5469C94.1787 16.8301 95.1422 21.6907 96.4693 26.0195C97.7939 30.3397 99.4672 34.0867 100.449 36.1289Z" fill="#47B6AD" stroke="#47B6AD"/>
<path d="M89.722 40.5558C90.0846 40.6843 90.3992 40.3831 90.2612 40.0292C88.7236 36.0907 84.443 26.4393 77.0968 19.3569C73.547 15.9348 69.2644 15.5824 66.8156 17.943C65.5822 19.1321 65.1541 20.6624 65.4271 22.3751C65.7028 24.1043 66.6969 26.0177 68.3138 27.8884C71.1631 31.1848 75.3925 33.9593 79.4935 36.1128C83.5869 38.2623 87.5131 39.7733 89.722 40.5558Z" fill="#47B6AD" stroke="#47B6AD"/>
<path d="M101.865 42.5C96.1085 42.5 91.473 46.9942 91.473 52.5C91.473 58.0058 96.1085 62.5 101.865 62.5C107.621 62.4999 112.255 58.0057 112.255 52.5C112.255 46.9943 107.621 42.5001 101.865 42.5Z" fill="#47B6AD" stroke="#47B6AD"/>
<path d="M101.724 68.8711C101.563 68.5374 101.135 68.5336 100.973 68.8779C99.1814 72.6822 95.1037 82.4544 95.1037 92.5C95.1037 97.3189 97.8611 100.5 101.346 100.5C103.101 100.5 104.529 99.7044 105.59 98.3096C106.662 96.9012 107.362 94.8743 107.59 92.4531C107.994 88.1699 107.03 83.3093 105.703 78.9805C104.379 74.6603 102.705 70.9133 101.724 68.8711Z" fill="#47B6AD" stroke="#47B6AD"/>
<path d="M114.195 63.089C113.832 62.9605 113.518 63.2616 113.656 63.6156C115.194 67.5541 119.474 77.2054 126.82 84.2879C130.37 87.71 134.653 88.0624 137.101 85.7018C138.335 84.5126 138.763 82.9824 138.49 81.2696C138.214 79.5404 137.22 77.6271 135.603 75.7564C132.754 72.46 128.525 69.6855 124.424 67.5319C120.33 65.3824 116.404 63.8715 114.195 63.089Z" fill="#47B6AD" stroke="#47B6AD"/>
<path d="M117.878 52.209C117.522 52.3673 117.523 52.8102 117.88 52.9658C121.886 54.712 131.959 58.5918 142.316 58.5918C147.358 58.5918 150.632 55.9093 150.633 52.5918C150.633 50.9214 149.819 49.5513 148.367 48.5244C146.901 47.4879 144.791 46.8106 142.272 46.5898C137.851 46.2024 132.842 47.1167 128.374 48.3828C123.913 49.6468 120.031 51.2503 117.878 52.209Z" fill="#47B6AD" stroke="#47B6AD"/>
<path d="M84.8137 52.8828C85.1694 52.7245 85.1678 52.2816 84.8117 52.126C80.8056 50.3798 70.7322 46.5 60.3752 46.5C55.3335 46.5 52.0589 49.1825 52.0588 52.5C52.0588 54.1704 52.8725 55.5405 54.3244 56.5674C55.79 57.6039 57.9 58.2812 60.4192 58.502C64.8405 58.8894 69.8495 57.9751 74.3176 56.709C78.7781 55.445 82.6601 53.8415 84.8137 52.8828Z" fill="#47B6AD" stroke="#47B6AD"/>
<path d="M89.1655 64.2065C89.2987 63.8569 88.9864 63.5536 88.6192 63.6867C84.5341 65.1691 74.5234 69.296 67.1773 76.3785C63.6278 79.8009 63.2623 83.9298 65.7108 86.2907C66.9442 87.4798 68.5314 87.8926 70.3079 87.6293C72.1015 87.3635 74.0861 86.4052 76.0264 84.8463C79.4456 82.0992 82.3234 78.0216 84.5571 74.0679C86.7866 70.1214 88.3538 66.3361 89.1655 64.2065Z" fill="#47B6AD" stroke="#47B6AD"/>
<path d="M155.282 155C191.585 153 223.221 103.5 263.672 113C304.124 122.5 299.457 186 251.744 157.5M155.282 155C118.979 157 89.9361 94.5 50.5214 112C11.1067 129.5 36.5188 168.5 59.8569 165M155.282 155C136.612 153 95.6409 122.5 149.058 97" stroke="#FEC30F" stroke-width="10"/>
<path d="M69.7098 137.5C62.2353 137.5 56.2079 143.337 56.2079 150.5C56.2079 151.493 56.0013 152.636 55.7089 153.839C55.4158 155.044 55.0272 156.344 54.6483 157.645C53.8814 160.278 53.1634 162.903 53.2255 165.031C53.2562 166.085 53.4778 166.972 53.9442 167.665C54.4043 168.349 55.135 168.892 56.2782 169.207C58.6053 169.848 62.5597 169.52 69.0165 167.53C77.2205 164.064 83.2128 157.658 83.2128 150.5C83.2128 143.337 77.1845 137.5 69.7098 137.5Z" fill="#FABE0E" stroke="#FEC30F"/>
<path d="M169.782 99.2385C165.947 95.2576 159.043 92.2666 146.732 92.9944C144.862 93.7002 144.029 94.7096 143.734 95.886C143.422 97.1298 143.682 98.66 144.231 100.431C144.503 101.308 144.838 102.223 145.193 103.169C145.546 104.112 145.919 105.087 146.257 106.067C146.93 108.022 147.484 110.05 147.484 112C147.484 119.163 153.512 125 160.986 125C168.461 125 174.489 119.163 174.489 112C174.489 108.337 173.635 103.238 169.782 99.2385Z" fill="#FABE0E" stroke="#FEC30F"/>
<path d="M258.486 132.5C255.319 132.5 252.192 133.74 249.859 135.747C247.528 137.754 246.021 140.499 246.021 143.5V143.513L246.02 143.524C245.762 148.745 246.282 154.796 247.548 158.396C247.863 159.293 248.216 160.011 248.596 160.521C248.977 161.033 249.352 161.29 249.704 161.361C250.043 161.43 250.468 161.349 251.008 160.947C251.554 160.541 252.181 159.832 252.878 158.732L253.024 158.5H253.3C254.84 158.5 256.654 157.962 258.529 157.024C260.398 156.09 262.295 154.774 263.994 153.259C265.693 151.743 267.182 150.04 268.242 148.337C269.306 146.627 269.914 144.958 269.914 143.5C269.914 137.442 264.815 132.5 258.486 132.5Z" fill="#FABE0E" stroke="#FEC30F"/>
<path d="M317.991 129.02C327.007 119.116 342.45 117.816 352.739 126.52C363.027 135.225 364.667 152.02 353.777 162.02C356.37 175.52 345.478 181.02 342.366 165.52C342.885 185.02 327.327 175.52 330.957 165.52C326.808 178.32 316.955 173.02 321.428 162.02C311.139 153.315 308.976 138.924 317.991 129.02ZM325.252 138.02C320.67 138.02 316.954 141.602 316.954 146.02C316.954 150.438 320.67 154.02 325.252 154.02C329.835 154.02 333.55 150.439 333.55 146.02C333.55 141.602 329.835 138.02 325.252 138.02ZM348.072 138.02C343.489 138.02 339.774 141.602 339.774 146.02C339.774 150.439 343.489 154.02 348.072 154.02C352.654 154.02 356.369 150.439 356.369 146.02C356.369 141.602 352.654 138.02 348.072 138.02Z" fill="#E34A74"/>
<path d="M744.293 130.02C753.308 120.116 768.751 118.815 779.04 127.52C789.329 136.225 790.968 153.02 780.077 163.02C782.67 176.52 771.78 182.02 768.668 166.52C769.187 186.02 753.628 176.52 757.258 166.52C753.109 179.32 743.255 174.02 747.729 163.02C737.44 154.315 735.278 139.924 744.293 130.02ZM751.554 139.02C746.971 139.02 743.256 142.602 743.256 147.02C743.256 151.439 746.971 155.02 751.554 155.02C756.136 155.02 759.852 151.439 759.852 147.02C759.851 142.602 756.136 139.02 751.554 139.02ZM774.373 139.02C769.79 139.02 766.075 142.602 766.075 147.02C766.075 151.439 769.79 155.02 774.373 155.02C778.956 155.02 782.671 151.438 782.671 147.02C782.671 142.602 778.956 139.02 774.373 139.02Z" fill="#E34A74"/>
<path d="M529.586 112.02C538.601 102.116 554.045 100.816 564.333 109.52C574.622 118.225 576.262 135.02 565.371 145.02C567.964 158.52 557.073 164.02 553.961 148.52C554.48 168.02 538.922 158.52 542.552 148.52C538.403 161.32 528.549 156.02 533.023 145.02C522.734 136.315 520.571 121.924 529.586 112.02ZM536.847 121.02C532.264 121.02 528.549 124.602 528.549 129.02C528.549 133.438 532.264 137.02 536.847 137.02C541.43 137.02 545.145 133.439 545.145 129.02C545.145 124.602 541.43 121.02 536.847 121.02ZM559.666 121.02C555.084 121.02 551.369 124.602 551.368 129.02C551.368 133.439 555.084 137.02 559.666 137.02C564.249 137.02 567.964 133.439 567.964 129.02C567.964 124.602 564.249 121.02 559.666 121.02Z" fill="#91D373"/>
</svg>
