<svg width="186" height="232" viewBox="0 0 186 232" fill="none" xmlns="http://www.w3.org/2000/svg">
<g clip-path="url(#clip0_1_2)">
<rect width="186" height="232" fill="#E7E3DB"/>
<path d="M54.5186 75.8574C72.8262 55.7449 104.188 53.1025 125.081 70.7803C145.975 88.4581 149.304 122.565 127.188 142.872C132.453 170.287 110.337 181.456 104.018 149.979C105.056 189.021 74.3585 170.818 80.5596 150.836C71.9774 175.73 52.5137 164.961 61.4961 142.872C40.6026 125.194 36.2111 95.97 54.5186 75.8574ZM59.832 138.251C59.7282 138.215 59.6404 138.321 59.6846 138.429C59.891 138.928 60.414 140.047 61.2402 140.854C61.6599 141.263 62.1649 141.301 62.4453 140.965C62.7256 140.629 62.6044 140.129 62.2207 139.68C61.565 138.913 60.3526 138.431 59.832 138.251ZM129.289 137.672C128.787 137.877 127.648 138.402 127.062 139.155C126.717 139.6 126.631 140.077 126.927 140.373C127.222 140.669 127.712 140.601 128.095 140.191C128.842 139.391 129.279 138.323 129.451 137.837C129.49 137.729 129.393 137.63 129.289 137.672ZM58.3105 135.586C57.6565 135.619 57.1556 136.22 57.1914 136.927C57.2274 137.634 57.7872 138.181 58.4414 138.147C59.0954 138.114 59.5965 137.514 59.5605 136.807C59.5245 136.099 58.9648 135.553 58.3105 135.586ZM62.8516 135.905C61.8823 135.86 60.7065 136.452 60.2305 136.719C60.135 136.772 60.1414 136.904 60.2422 136.946C60.7064 137.142 61.8142 137.548 62.9316 137.491C63.4941 137.463 63.8736 137.103 63.8506 136.649C63.8275 136.196 63.4145 135.932 62.8516 135.905ZM130.61 135.078C129.97 135.089 129.46 135.635 129.471 136.299C129.481 136.963 130.009 137.493 130.649 137.482C131.29 137.472 131.8 136.926 131.789 136.262C131.778 135.598 131.251 135.068 130.61 135.078ZM126.203 135.665C125.656 135.726 125.27 135.998 125.276 136.424C125.283 136.85 125.676 137.162 126.227 137.153C127.307 137.136 128.349 136.697 128.799 136.481C128.899 136.433 128.897 136.298 128.796 136.252C128.305 136.03 127.135 135.562 126.203 135.665ZM55.5527 133.036C55.1332 132.627 54.628 132.589 54.3477 132.925C54.0672 133.261 54.1894 133.762 54.5732 134.211C55.229 134.978 56.4405 135.459 56.9609 135.64C57.065 135.676 57.153 135.569 57.1084 135.461C56.9018 134.962 56.3788 133.843 55.5527 133.036ZM61.9482 132.487C61.6351 132.181 61.1721 132.309 60.7598 132.721C60.0555 133.423 59.6197 134.73 59.457 135.291C59.4247 135.403 59.5236 135.499 59.623 135.451C60.0834 135.232 61.1145 134.676 61.8545 133.789C62.2299 133.339 62.2611 132.793 61.9482 132.487ZM134.304 132.337C134.008 132.04 133.517 132.108 133.135 132.518C132.387 133.318 131.951 134.387 131.779 134.873C131.741 134.982 131.838 135.08 131.941 135.038C132.443 134.833 133.581 134.307 134.167 133.554C134.512 133.11 134.599 132.633 134.304 132.337ZM128.036 132.553C127.607 132.194 127.148 132.104 126.862 132.41C126.577 132.716 126.642 133.225 127.038 133.622C127.811 134.398 128.842 134.852 129.311 135.031C129.415 135.071 129.51 134.971 129.469 134.863C129.271 134.343 128.763 133.161 128.036 132.553ZM58.0908 131.071C57.6715 131.093 57.4313 131.538 57.4111 132.146C57.3771 133.175 57.916 134.426 58.1719 134.959C58.2228 135.065 58.3663 135.057 58.4053 134.946C58.5864 134.43 58.9373 133.257 58.877 132.071C58.846 131.463 58.5105 131.05 58.0908 131.071ZM130.532 130.841C130.121 130.847 129.821 131.255 129.83 131.826C129.848 132.936 130.265 134.008 130.476 134.481C130.523 134.587 130.663 134.585 130.707 134.479C130.923 133.962 131.365 132.762 131.266 131.803C131.207 131.235 130.943 130.834 130.532 130.841ZM71.8535 128C70.8299 128 70 128.8 70 129.787C70.0002 130.774 70.8301 131.574 71.8535 131.574C72.877 131.574 73.7068 130.774 73.707 129.787C73.707 128.8 72.8772 128 71.8535 128ZM118.698 127.997C117.675 127.997 116.845 128.797 116.845 129.784C116.845 130.771 117.675 131.571 118.698 131.571C119.722 131.571 120.552 130.771 120.552 129.784C120.552 128.797 119.722 127.997 118.698 127.997ZM65.7129 127.929C64.6893 127.929 63.8596 128.729 63.8594 129.716C63.8594 130.703 64.6892 131.503 65.7129 131.503C66.7364 131.503 67.5664 130.703 67.5664 129.716C67.5662 128.729 66.7363 127.929 65.7129 127.929ZM112.558 127.927C111.534 127.927 110.703 128.727 110.703 129.714C110.703 130.701 111.534 131.501 112.558 131.501C113.581 131.501 114.411 130.7 114.411 129.714C114.411 128.727 113.581 127.927 112.558 127.927ZM77.8535 126C76.8299 126 76 126.8 76 127.787C76.0002 128.774 76.8301 129.574 77.8535 129.574C78.877 129.574 79.7068 128.774 79.707 127.787C79.707 126.8 78.8772 126 77.8535 126ZM124.698 125.997C123.675 125.997 122.845 126.797 122.845 127.784C122.845 128.771 123.675 129.571 124.698 129.571C125.722 129.571 126.552 128.771 126.552 127.784C126.552 126.797 125.722 125.997 124.698 125.997ZM59.7061 125.926C58.6824 125.926 57.8525 126.726 57.8525 127.713C57.8526 128.7 58.6824 129.5 59.7061 129.5C60.7296 129.5 61.5595 128.7 61.5596 127.713C61.5596 126.726 60.7296 125.926 59.7061 125.926ZM106.551 125.923C105.527 125.923 104.696 126.723 104.696 127.71C104.696 128.697 105.527 129.497 106.551 129.497C107.574 129.497 108.404 128.697 108.404 127.71C108.404 126.723 107.574 125.923 106.551 125.923ZM69.2627 94.1338C59.9564 94.1339 52.4122 101.408 52.4121 110.38C52.4123 119.352 59.9565 126.626 69.2627 126.626C78.569 126.626 86.1131 119.352 86.1133 110.38C86.1132 101.408 78.5691 94.1338 69.2627 94.1338ZM115.604 94.1338C106.297 94.1339 98.752 101.408 98.752 110.38C98.7521 119.352 106.297 126.626 115.604 126.626C124.91 126.626 132.454 119.352 132.454 110.38C132.454 101.408 124.91 94.1341 115.604 94.1338ZM82.8535 123C81.8299 123 81 123.8 81 124.787C81.0002 125.774 81.8301 126.574 82.8535 126.574C83.877 126.574 84.7068 125.774 84.707 124.787C84.707 123.8 83.8772 123 82.8535 123ZM129.698 122.997C128.675 122.997 127.845 123.797 127.845 124.784C127.845 125.771 128.675 126.571 129.698 126.571C130.722 126.571 131.552 125.771 131.552 124.784C131.552 123.797 130.722 122.997 129.698 122.997ZM54.7012 121.924C53.6776 121.924 52.8477 122.724 52.8477 123.711C52.8479 124.698 53.6777 125.498 54.7012 125.498C55.7247 125.498 56.5545 124.698 56.5547 123.711C56.5547 122.724 55.7248 121.924 54.7012 121.924ZM101.546 121.921C100.522 121.921 99.6924 122.721 99.6924 123.708C99.6925 124.695 100.522 125.495 101.546 125.495C102.57 125.495 103.399 124.695 103.399 123.708C103.399 122.721 102.57 121.921 101.546 121.921ZM86.8535 118C85.8299 118 85 118.8 85 119.787C85.0002 120.774 85.8301 121.574 86.8535 121.574C87.877 121.574 88.7068 120.774 88.707 119.787C88.707 118.8 87.8772 118 86.8535 118ZM50.8486 117.997C49.8249 117.997 48.9951 118.797 48.9951 119.784C48.9952 120.771 49.825 121.571 50.8486 121.571C51.872 121.571 52.702 120.771 52.7021 119.784C52.7021 118.797 51.8721 117.997 50.8486 117.997ZM133.698 117.997C132.675 117.997 131.845 118.797 131.845 119.784C131.845 120.771 132.675 121.571 133.698 121.571C134.722 121.571 135.552 120.771 135.552 119.784C135.552 118.797 134.722 117.997 133.698 117.997ZM97.6924 117.994C96.6688 117.994 95.8389 118.794 95.8389 119.781C95.8389 120.768 96.6688 121.568 97.6924 121.568C98.716 121.568 99.5459 120.768 99.5459 119.781C99.5458 118.794 98.716 117.994 97.6924 117.994ZM48.8447 110.995C47.8212 110.995 46.9913 111.795 46.9912 112.782C46.9913 113.769 47.8212 114.569 48.8447 114.569C49.8684 114.569 50.6982 113.769 50.6982 112.782C50.6981 111.795 49.8683 110.995 48.8447 110.995ZM95.6895 110.993C94.6659 110.993 93.8362 111.793 93.8359 112.779C93.836 113.766 94.6658 114.566 95.6895 114.566C96.7131 114.566 97.5429 113.766 97.543 112.779C97.5427 111.793 96.713 110.993 95.6895 110.993ZM88.7822 110.964C87.7585 110.964 86.9277 111.764 86.9277 112.751C86.9279 113.738 87.7586 114.538 88.7822 114.538C89.8056 114.538 90.6356 113.738 90.6357 112.751C90.6357 111.764 89.8057 110.964 88.7822 110.964ZM135.626 110.961C134.602 110.961 133.773 111.761 133.772 112.748C133.773 113.735 134.602 114.535 135.626 114.535C136.65 114.535 137.479 113.735 137.479 112.748C137.479 111.761 136.65 110.961 135.626 110.961ZM88.7881 104.967C87.7646 104.967 86.9347 105.767 86.9346 106.754C86.9346 107.741 87.7645 108.541 88.7881 108.541C89.8117 108.541 90.6416 107.741 90.6416 106.754C90.6415 105.767 89.8117 104.967 88.7881 104.967ZM135.633 104.965C134.609 104.965 133.78 105.764 133.779 106.751C133.779 107.738 134.609 108.538 135.633 108.538C136.656 108.538 137.486 107.738 137.486 106.751C137.486 105.764 136.656 104.965 135.633 104.965ZM49.8389 103.992C48.8152 103.992 47.9854 104.792 47.9854 105.779C47.9854 106.766 48.8152 107.566 49.8389 107.566C50.8625 107.566 51.6923 106.766 51.6924 105.779C51.6923 104.792 50.8625 103.992 49.8389 103.992ZM96.6836 103.989C95.66 103.989 94.8303 104.79 94.8301 105.776C94.8301 106.763 95.6599 107.563 96.6836 107.563C97.7071 107.563 98.5371 106.763 98.5371 105.776C98.5369 104.79 97.707 103.989 96.6836 103.989ZM85.7334 97.9395C84.7099 97.9396 83.88 98.7398 83.8799 99.7266C83.8799 100.713 84.7099 101.514 85.7334 101.514C86.757 101.514 87.5869 100.713 87.5869 99.7266C87.5868 98.7397 86.757 97.9395 85.7334 97.9395ZM132.578 97.9365C131.555 97.9365 130.725 98.7369 130.725 99.7236C130.725 100.711 131.554 101.511 132.578 101.511C133.602 101.511 134.432 100.711 134.432 99.7236C134.431 98.7369 133.602 97.9366 132.578 97.9365ZM52.834 96.9902C51.8103 96.9903 50.9805 97.7904 50.9805 98.7773C50.9807 99.7641 51.8105 100.564 52.834 100.564C53.8575 100.564 54.6872 99.7641 54.6875 98.7773C54.6875 97.7904 53.8576 96.9903 52.834 96.9902ZM99.6787 96.9873C98.655 96.9873 97.8252 97.7875 97.8252 98.7744C97.8253 99.7613 98.6551 100.562 99.6787 100.562C100.702 100.561 101.532 99.7612 101.532 98.7744C101.532 97.7875 100.702 96.9875 99.6787 96.9873ZM92.8955 86.9443C92.287 86.9446 91.9059 87.5574 91.832 88.4189C91.79 88.9098 91.8411 89.4409 91.9385 89.959C91.6871 89.5459 91.3947 89.1344 91.0586 88.7646C90.5024 88.1529 89.7889 88.0754 89.3584 88.5488C88.9279 89.0224 89.053 89.7531 89.5547 90.4199C89.8401 90.7992 90.2169 91.1345 90.6182 91.4248C90.1752 91.3284 89.7044 91.2656 89.2295 91.2656C88.4429 91.2657 87.8887 91.7659 87.8887 92.4355C87.8887 93.1052 88.4462 93.5242 89.2295 93.6055C89.6753 93.6517 90.1574 93.5961 90.6279 93.4893C90.2529 93.7655 89.8796 94.0868 89.5439 94.4561C88.9877 95.068 88.9172 95.8536 89.3477 96.3271C89.7781 96.8005 90.4418 96.663 91.0479 96.1113C91.3931 95.797 91.6987 95.3824 91.9629 94.9404C91.8752 95.4279 91.8174 95.9461 91.8174 96.4688C91.8175 97.3339 92.2722 97.9433 92.8809 97.9434C93.4896 97.9433 93.8704 97.3303 93.9443 96.4688C93.9864 95.9776 93.9353 95.4461 93.8379 94.9277C94.0894 95.3411 94.3814 95.753 94.7178 96.123C95.274 96.7349 95.9885 96.8124 96.4189 96.3389C96.8494 95.8653 96.7243 95.1346 96.2227 94.4678C95.937 94.0882 95.5598 93.7524 95.1582 93.4619C95.6012 93.5584 96.0719 93.622 96.5469 93.6221C97.3335 93.622 97.8886 93.1218 97.8887 92.4521C97.8887 91.7824 97.3303 91.3635 96.5469 91.2822C96.1011 91.236 95.6189 91.2906 95.1484 91.3975C95.5235 91.1212 95.8977 90.8009 96.2334 90.4316C96.7896 89.8198 96.8591 89.0341 96.4287 88.5605C95.9982 88.0873 95.3346 88.2246 94.7285 88.7764C94.3833 89.0907 94.0777 89.5053 93.8135 89.9473C93.9012 89.4598 93.96 88.9417 93.96 88.4189C93.9599 87.5538 93.5042 86.9444 92.8955 86.9443ZM82.7969 93.9717C81.7732 93.9717 80.9434 94.7718 80.9434 95.7588C80.9436 96.7455 81.7734 97.5459 82.7969 97.5459C83.8204 97.5459 84.6501 96.7455 84.6504 95.7588C84.6504 94.7719 83.8205 93.9717 82.7969 93.9717ZM129.642 93.9688C128.618 93.9688 127.788 94.7689 127.788 95.7559C127.788 96.7427 128.618 97.543 129.642 97.543C130.665 97.5428 131.495 96.7426 131.495 95.7559C131.495 94.769 130.665 93.9689 129.642 93.9688ZM58.8242 91.9854C57.8005 91.9854 56.9707 92.7855 56.9707 93.7725C56.971 94.7592 57.8007 95.5596 58.8242 95.5596C59.8477 95.5595 60.6775 94.7592 60.6777 93.7725C60.6777 92.7855 59.8479 91.9854 58.8242 91.9854ZM105.669 91.9824C104.645 91.9824 103.815 92.7826 103.815 93.7695C103.816 94.7564 104.645 95.5566 105.669 95.5566C106.692 95.5565 107.522 94.7563 107.522 93.7695C107.522 92.7827 106.693 91.9826 105.669 91.9824ZM76.8057 89.9756C75.782 89.9756 74.9521 90.7757 74.9521 91.7627C74.9522 92.7496 75.782 93.5498 76.8057 93.5498C77.8292 93.5497 78.6591 92.7495 78.6592 91.7627C78.6592 90.7758 77.8292 89.9757 76.8057 89.9756ZM123.65 89.9727C122.627 89.9727 121.796 90.7729 121.796 91.7598C121.796 92.7467 122.627 93.5469 123.65 93.5469C124.674 93.5466 125.504 92.7465 125.504 91.7598C125.504 90.7731 124.674 89.9729 123.65 89.9727ZM64.8115 88.9785C63.7878 88.9785 62.958 89.7787 62.958 90.7656C62.9581 91.7525 63.7879 92.5527 64.8115 92.5527C65.8351 92.5526 66.665 91.7524 66.665 90.7656C66.665 89.7788 65.8351 88.9787 64.8115 88.9785ZM111.656 88.9756C110.633 88.9756 109.802 89.7758 109.802 90.7627C109.802 91.7496 110.633 92.5498 111.656 92.5498C112.68 92.5495 113.51 91.7494 113.51 90.7627C113.51 89.776 112.68 88.9759 111.656 88.9756ZM70.7539 88.9502C69.7303 88.9503 68.9004 89.7504 68.9004 90.7373C68.9006 91.724 69.7305 92.5243 70.7539 92.5244C71.7774 92.5244 72.6072 91.724 72.6074 90.7373C72.6074 89.7504 71.7776 88.9502 70.7539 88.9502ZM117.599 88.9473C116.575 88.9473 115.745 89.7474 115.745 90.7344C115.745 91.7212 116.575 92.5215 117.599 92.5215C118.622 92.5214 119.452 91.7212 119.452 90.7344C119.452 89.7474 118.622 88.9473 117.599 88.9473ZM53.1709 86.1172C53.0978 86.0329 52.9659 86.068 52.9453 86.1777C52.8203 86.8445 52.5481 88.7123 53.0098 90.4404C53.2302 91.2647 53.8619 91.7181 54.5 91.5479C55.1383 91.3773 55.3822 90.6858 55.2402 89.8438C54.9833 88.3207 53.6513 86.6714 53.1709 86.1172ZM50.9512 85.9492C50.9621 85.8379 50.8418 85.7699 50.7471 85.835C50.1694 86.2328 48.6228 87.3875 47.6846 88.9434C47.2355 89.6882 47.3436 90.4481 47.9111 90.7627C48.4787 91.0772 49.1519 90.7464 49.668 90.043C50.5984 88.7746 50.879 86.6841 50.9512 85.9492ZM131.023 85.5498C130.999 85.4412 130.867 85.4094 130.797 85.4961C130.387 86.0053 129.335 87.4317 128.947 89.0684C128.761 89.8547 129.085 90.517 129.693 90.6611C130.302 90.8048 130.815 90.3368 131.074 89.5713C131.54 88.1956 131.177 86.24 131.023 85.5498ZM133.145 85.0713C133.048 85.0095 132.928 85.0796 132.943 85.1904C133.032 85.8419 133.343 87.5802 134.266 89.0166C134.711 89.709 135.42 89.964 135.948 89.6514C136.477 89.3383 136.492 88.6507 136.113 87.9229C135.434 86.6192 133.76 85.4654 133.145 85.0713ZM54.8994 84.6201C54.7847 84.6116 54.7127 84.7307 54.7783 84.8213C55.1789 85.3742 56.343 86.851 57.9316 87.7314C58.6923 88.1528 59.4794 88.0342 59.8145 87.4785C60.1492 86.9228 59.8193 86.2763 59.1025 85.7891C57.8099 84.9105 55.6564 84.6766 54.8994 84.6201ZM129.111 84.2148C128.44 84.2898 126.648 84.5625 125.179 85.4326C124.47 85.8521 124.219 86.534 124.551 87.0508C124.883 87.5676 125.594 87.5934 126.34 87.2383C127.676 86.602 128.841 85.0016 129.238 84.4121C129.301 84.3193 129.226 84.2021 129.111 84.2148ZM114.322 75.0352C109.649 73.3706 105.658 75.5954 102.351 77.6875C100.616 78.7848 99.0785 79.8444 97.4834 80.6484C95.9169 81.4379 94.4653 81.8853 93.0176 81.8213C91.4698 81.7528 89.9126 81.275 88.2646 80.5498C86.5938 79.8145 84.965 78.891 83.1631 77.9463C79.6769 76.1186 75.6691 74.2699 71.084 75.1338C66.4997 75.9978 63.8766 79.5125 64.4912 82.7227C64.8084 84.3783 65.9978 85.7177 67.8496 86.1953C69.6199 86.6517 71.8394 86.2925 74.3857 85.0723L73.7383 83.7197L73.0898 82.3662C70.885 83.4228 69.4236 83.5037 68.5986 83.291C67.8556 83.0994 67.5336 82.6596 67.4375 82.1582C67.2263 81.0535 68.1677 78.7364 71.6396 78.082C75.1119 77.4278 78.2839 78.7746 81.7705 80.6025C83.4547 81.4855 85.2606 82.5055 87.0566 83.2959C88.8753 84.0962 90.8183 84.7269 92.8857 84.8184C95.0531 84.9141 97.0372 84.2328 98.834 83.3271C100.602 82.4358 102.358 81.2327 103.955 80.2227C107.311 78.0998 110.138 76.7284 113.315 77.8604C115.094 78.4938 115.881 79.2341 116.193 79.7773C116.472 80.263 116.473 80.7633 116.219 81.3027C115.634 82.5429 113.834 83.6325 112.139 83.4287L111.959 84.918L111.78 86.4072C114.733 86.7623 117.787 85.0148 118.934 82.5801C119.545 81.2819 119.628 79.7341 118.794 78.2822C117.992 76.888 116.469 75.8 114.322 75.0352ZM54.2441 83.0205C53.9878 82.0614 52.9734 81.499 51.9785 81.7646C50.9835 82.0305 50.3844 83.0241 50.6406 83.9834C50.8969 84.9426 51.9113 85.5049 52.9062 85.2393C53.9012 84.9734 54.5004 83.9798 54.2441 83.0205ZM131.979 81.373C131.03 81.1485 130.085 81.7076 129.868 82.6221C129.652 83.5367 130.245 84.4607 131.193 84.6855C132.142 84.9101 133.087 84.3503 133.304 83.4355C133.52 82.5211 132.927 81.5979 131.979 81.373ZM60.5967 81.3398C60.4323 80.7245 59.7233 80.5015 58.8516 80.6543C57.2846 80.9291 55.5693 82.2345 54.9775 82.7178C54.8883 82.7907 54.9235 82.928 55.0371 82.9463C55.7343 83.056 57.6446 83.2806 59.4258 82.8047C60.2812 82.5761 60.761 81.9552 60.5967 81.3398ZM125.284 80.4541C124.469 80.261 123.789 80.5637 123.65 81.1504C123.512 81.7371 124.003 82.2413 124.798 82.5049C126.219 82.9755 128.219 82.6633 128.94 82.5244C129.053 82.5023 129.086 82.3645 128.994 82.2949C128.452 81.8844 126.97 80.8533 125.284 80.4541ZM56.7646 76.3496C56.197 76.0351 55.523 76.3668 55.0068 77.0703C54.0764 78.3389 53.7958 80.4296 53.7236 81.1641C53.7128 81.2753 53.834 81.3434 53.9287 81.2783C54.5064 80.8805 56.053 79.7248 56.9912 78.1689C57.4399 77.4243 57.3321 76.6641 56.7646 76.3496ZM128.986 76.835C128.541 76.1423 127.832 75.8881 127.304 76.2012C126.775 76.5142 126.76 77.201 127.139 77.9287C127.818 79.2324 129.492 80.3862 130.107 80.7803C130.204 80.8422 130.324 80.772 130.309 80.6611C130.22 80.0095 129.909 78.2712 128.986 76.835ZM92.6152 73.0039C92.5565 72.8817 92.3908 72.8832 92.333 73.0059C92.0266 73.6566 91.3262 75.3338 91.3262 77.0625C91.3264 77.9107 91.8171 78.5088 92.4736 78.5088C93.1302 78.5087 93.5413 77.9073 93.6211 77.0625C93.7616 75.5723 92.9516 73.7039 92.6152 73.0039ZM90.2773 72.0801C89.5791 72.3335 87.8613 73.0407 86.5977 74.2588C85.9753 74.8588 85.8833 75.6167 86.3477 76.0645C86.8121 76.5119 87.5437 76.3664 88.2197 75.8232C89.4082 74.8684 90.2045 73.0047 90.4824 72.2754C90.5308 72.1484 90.4087 72.0326 90.2773 72.0801ZM94.6904 71.9775C94.5587 71.931 94.4379 72.0491 94.4873 72.1758C94.7502 72.8492 95.4845 74.5054 96.748 75.7236C97.3703 76.3235 98.1558 76.4114 98.6201 75.9639C99.0844 75.5162 98.9343 74.811 98.3711 74.1592C97.3807 73.0134 95.4469 72.2455 94.6904 71.9775ZM92.5615 68.4668C91.5381 68.467 90.7082 69.2672 90.708 70.2539C90.7081 71.2407 91.538 72.0408 92.5615 72.041C93.5852 72.041 94.415 71.2408 94.415 70.2539C94.4149 69.2671 93.5851 68.4668 92.5615 68.4668ZM99.4463 69.1631C97.9114 69.0287 95.9905 69.7986 95.2529 70.127C95.1248 70.184 95.1253 70.3551 95.2539 70.4111C95.9388 70.7097 97.6659 71.3759 99.4463 71.376C100.326 71.3759 100.947 70.9026 100.947 70.2695C100.947 69.6365 100.323 69.2399 99.4463 69.1631ZM85.501 69.1484C84.621 69.1484 84.0002 69.6209 84 70.2539C84.0001 70.887 84.6245 71.2835 85.501 71.3604C87.0358 71.4947 88.9567 70.7258 89.6943 70.3975C89.8224 70.3404 89.8218 70.1684 89.6934 70.1123C89.0084 69.8138 87.2812 69.1485 85.501 69.1484ZM98.5469 64.4951C98.0826 64.0475 97.3509 64.1923 96.6748 64.7354C95.4863 65.6902 94.6901 67.5549 94.4121 68.2842C94.3641 68.411 94.486 68.5269 94.6172 68.4795C95.3156 68.2261 97.0332 67.5181 98.2969 66.2998C98.9192 65.6998 99.0112 64.9428 98.5469 64.4951ZM88.4082 64.5547C87.7858 63.9547 86.9995 63.8658 86.5352 64.3135C86.0708 64.7612 86.2217 65.4673 86.7852 66.1191C87.7756 67.2649 89.7094 68.0318 90.4658 68.2998C90.5974 68.3461 90.7171 68.229 90.668 68.1025C90.4051 67.4293 89.6716 65.773 88.4082 64.5547ZM92.3857 62C91.729 62 91.318 62.6013 91.2383 63.4463C91.0978 64.9369 91.9079 66.8053 92.2441 67.5049C92.3029 67.6269 92.4676 67.6254 92.5254 67.5029C92.8317 66.8526 93.5332 65.1753 93.5332 63.4463C93.5332 62.598 93.0422 62.0003 92.3857 62Z" fill="white"/>
</g>
<defs>
<clipPath id="clip0_1_2">
<rect width="186" height="232" fill="white"/>
</clipPath>
</defs>
</svg>
